<svg width="145" height="146" viewBox="0 0 145 146" fill="none" xmlns="http://www.w3.org/2000/svg">
<g filter="url(#filter0_ddi_17_3474)">
<path d="M66.4479 10.413C69.1467 5.76963 75.8533 5.76962 78.5521 10.413L85.8457 22.9622C87.432 25.6915 90.6489 27.0214 93.6994 26.2089L107.796 22.4543C113.005 21.0668 117.762 25.8415 116.355 31.0457L112.617 44.871C111.786 47.9443 113.133 51.1913 115.896 52.7731L128.389 59.9251C133.085 62.6136 133.085 69.3864 128.389 72.0749L115.896 79.2269C113.133 80.8087 111.786 84.0557 112.617 87.129L116.355 100.954C117.762 106.159 113.005 110.933 107.796 109.546L93.6994 105.791C90.6489 104.979 87.432 106.308 85.8457 109.038L78.5521 121.587C75.8533 126.23 69.1467 126.23 66.4479 121.587L59.1543 109.038C57.568 106.308 54.3511 104.979 51.3006 105.791L37.204 109.546C31.9945 110.933 27.2378 106.159 28.645 100.954L32.3834 87.129C33.2144 84.0557 31.8669 80.8087 29.1039 79.2269L16.6113 72.0749C11.9151 69.3864 11.9151 62.6136 16.6113 59.9251L29.1039 52.7731C31.8669 51.1913 33.2144 47.9443 32.3834 44.871L28.645 31.0457C27.2378 25.8415 31.9945 21.0668 37.204 22.4543L51.3006 26.2089C54.3511 27.0214 57.568 25.6915 59.1543 22.9622L66.4479 10.413Z" fill="#0096C7"/>
<path d="M67.3125 10.9155C69.6257 6.93546 75.3743 6.93546 77.6875 10.9155L84.9811 23.4647C86.794 26.5839 90.4705 28.1038 93.9567 27.1752L108.053 23.4206C112.519 22.2313 116.596 26.3239 115.39 30.7846L111.651 44.61C110.702 48.1224 112.242 51.8332 115.399 53.6409L127.892 60.7929C131.917 63.0974 131.917 68.9026 127.892 71.2071L115.399 78.3591C112.242 80.1668 110.702 83.8776 111.651 87.39L115.39 101.215C116.596 105.676 112.519 109.769 108.053 108.579L93.9567 104.825C90.4705 103.896 86.794 105.416 84.9811 108.535L77.6875 121.085C75.3743 125.065 69.6257 125.065 67.3125 121.085L60.0189 108.535C58.206 105.416 54.5295 103.896 51.0433 104.825L36.9466 108.579C32.4814 109.769 28.4042 105.676 29.6104 101.215L33.3487 87.39C34.2985 83.8776 32.7584 80.1668 29.6008 78.3591L17.1081 71.2071C13.0828 68.9026 13.0828 63.0974 17.1081 60.7929L29.6008 53.6409C32.7584 51.8332 34.2985 48.1224 33.3487 44.61L29.6104 30.7846C28.4042 26.3239 32.4814 22.2313 36.9466 23.4206L51.0433 27.1752C54.5295 28.1038 58.206 26.584 60.0189 23.4647L67.3125 10.9155Z" stroke="url(#paint0_linear_17_3474)" stroke-width="2"/>
</g>
<path d="M89.9894 46.7766C89.2815 46.3831 88.5029 46.1329 87.6983 46.0404C86.8936 45.9478 86.0786 46.0147 85.2998 46.2372C84.521 46.4597 83.7937 46.8334 83.1593 47.337C82.525 47.8406 81.9961 48.4643 81.6028 49.1723L70.1544 69.7752L63.6023 63.2231C63.0334 62.6341 62.353 62.1643 61.6006 61.8411C60.8482 61.5179 60.0391 61.3478 59.2203 61.3407C58.4014 61.3336 57.5894 61.4896 56.8316 61.7997C56.0737 62.1097 55.3852 62.5676 54.8062 63.1466C54.2272 63.7256 53.7693 64.4142 53.4592 65.172C53.1491 65.9299 52.9931 66.7419 53.0002 67.5607C53.0073 68.3795 53.1775 69.1887 53.5007 69.9411C53.8238 70.6934 54.2936 71.3739 54.8826 71.9427L67.2159 84.2761C68.3814 85.4447 69.9539 86.086 71.5758 86.086L72.4299 86.0243C73.3751 85.8921 74.2767 85.5423 75.0637 85.0024C75.8507 84.4626 76.5017 83.7474 76.9654 82.9132L92.3821 55.1632C92.7757 54.4555 93.026 53.6771 93.1188 52.8726C93.2116 52.068 93.145 51.2531 92.9228 50.4743C92.7006 49.6956 92.3272 48.9682 91.8239 48.3337C91.3206 47.6992 90.6972 47.1701 89.9894 46.7766Z" fill="#E8FBFF"/>
<defs>
<filter id="filter0_ddi_17_3474" x="0.889142" y="2.73066" width="143.222" height="142.539" filterUnits="userSpaceOnUse" color-interpolation-filters="sRGB">
<feFlood flood-opacity="0" result="BackgroundImageFix"/>
<feColorMatrix in="SourceAlpha" type="matrix" values="0 0 0 0 0 0 0 0 0 0 0 0 0 0 0 0 0 0 127 0" result="hardAlpha"/>
<feOffset dy="6"/>
<feComposite in2="hardAlpha" operator="out"/>
<feColorMatrix type="matrix" values="0 0 0 0 0.015625 0 0 0 0 0.2394 0 0 0 0 0.3125 0 0 0 1 0"/>
<feBlend mode="normal" in2="BackgroundImageFix" result="effect1_dropShadow_17_3474"/>
<feColorMatrix in="SourceAlpha" type="matrix" values="0 0 0 0 0 0 0 0 0 0 0 0 0 0 0 0 0 0 127 0" result="hardAlpha"/>
<feOffset dy="8"/>
<feGaussianBlur stdDeviation="6.1"/>
<feComposite in2="hardAlpha" operator="out"/>
<feColorMatrix type="matrix" values="0 0 0 0 0 0 0 0 0 0 0 0 0 0 0 0 0 0 0.2 0"/>
<feBlend mode="normal" in2="effect1_dropShadow_17_3474" result="effect2_dropShadow_17_3474"/>
<feBlend mode="normal" in="SourceGraphic" in2="effect2_dropShadow_17_3474" result="shape"/>
<feColorMatrix in="SourceAlpha" type="matrix" values="0 0 0 0 0 0 0 0 0 0 0 0 0 0 0 0 0 0 127 0" result="hardAlpha"/>
<feOffset dy="4"/>
<feGaussianBlur stdDeviation="2"/>
<feComposite in2="hardAlpha" operator="arithmetic" k2="-1" k3="1"/>
<feColorMatrix type="matrix" values="0 0 0 0 0.792157 0 0 0 0 0.941176 0 0 0 0 0.972549 0 0 0 0.4 0"/>
<feBlend mode="normal" in2="shape" result="effect3_innerShadow_17_3474"/>
</filter>
<linearGradient id="paint0_linear_17_3474" x1="72.5" y1="0" x2="72.5" y2="132" gradientUnits="userSpaceOnUse">
<stop stop-color="#CAF0F8" stop-opacity="0.4"/>
<stop offset="1" stop-color="#0096C7" stop-opacity="0.32"/>
</linearGradient>
</defs>
</svg>
